<svg xmlns="http://www.w3.org/2000/svg" width="256" height="256" viewBox="0 0 1000 1000"><path id="path" style="opacity:1;vector-effect:none;fill:#83CD29;fill-opacity:1;" d="M 500 0C 224 0 0 224 0 500C 0 776 224 1000 500 1000C 776 1000 1000 776 1000 500C 1000 224 776 0 500 0C 500 0 500 0 500 0 M 500 900C 489 900 479 897 469 892 437 872 404 853 371 834 357 826 364 823 369 821 388 815 392 813 413 801 415 800 418 801 420 802 445 817 470 832 495 847 498 848 501 848 504 847 601 790 699 734 797 677 800 676 801 673 801 669 801 556 801 443 801 331 801 327 800 324 797 322 699 266 601 210 504 153 501 152 497 152 495 153 397 210 299 266 202 322 199 324 197 328 197 331 197 443 197 556 197 669 197 672 199 676 202 677 228 693 255 708 282 723 325 746 352 720 352 694 352 583 352 471 352 360 352 355 356 351 361 351 374 351 386 351 399 351 403 351 407 355 407 360 407 471 407 583 407 694 407 752 376 786 321 786 304 786 291 786 253 768 227 753 202 738 176 723 157 712 145 692 145 670 145 557 145 444 145 331 145 309 157 289 176 278 274 221 371 165 469 108 488 98 512 98 531 108 629 165 726 221 824 278 843 289 855 309 855 331 855 444 855 557 855 670 855 692 843 712 824 723 726 780 629 837 531 893 521 898 510 900 500 900ZM 590 667C 462 667 435 608 435 558 435 554 439 549 444 549 457 549 470 549 482 549 487 549 490 552 490 557 496 596 513 615 591 615 653 615 679 601 679 568 679 549 672 535 576 525 496 517 446 499 446 436 446 376 496 341 579 341 673 341 720 373 725 444 725 446 725 448 723 450 722 452 720 453 717 453 705 453 692 453 679 453 676 453 672 450 671 447 662 406 640 393 579 393 512 393 504 416 504 434 504 455 513 462 604 474 695 485 737 502 737 566 737 630 684 667 590 667Z" transform=""></path></svg>